<svg id="Layer_1" data-name="Layer 1" xmlns="http://www.w3.org/2000/svg" viewBox="0 0 260.85 194.38"><defs><style>.cls-1{fill:#231f20;}</style></defs><path class="cls-1" d="M8.06,78.6,16,76.47v43.21l13-3.49v7.2L8.06,129Z"/><path class="cls-1" d="M30.66,72.54l7.92-2.12v50.4l-7.92,2.12Z"/><path class="cls-1" d="M42.54,69.36l7.92-2.13v50.41l-7.92,2.12Z"/><path class="cls-1" d="M61.48,78.18v36.51l-7.13,1.91V66.19l9.93-2.66,8.14,28V61.35l7.06-1.89v50.4l-8.14,2.19Z"/><path class="cls-1" d="M109,102l-8,2.14-1.36-8.78-9.72,2.6-1.37,9.51-7.27,1.95,8.06-52.56,11.59-3.11ZM90.92,90.81l7.64-2L94.74,64.3Z"/><path class="cls-1" d="M85.25,138.56l-2.45,5.27v15.48l-7.92,2.12V111l7.92-2.13v22l10.37-24.74,7.92-2.13-11,25.42,11,25L93,156.59Z"/><path class="cls-1" d="M101.74,115.93c0-8.07,4.24-13.81,12-15.9s12,1.39,12,9.45v26.21c0,8.07-4.24,13.82-12,15.9s-12-1.39-12-9.45Zm7.92,24.59c0,3.6,1.58,4.54,4.1,3.87s4.1-2.47,4.1-6.07V111.1c0-3.6-1.58-4.54-4.1-3.87s-4.1,2.47-4.1,6.07Z"/><path class="cls-1" d="M139.75,93.07c7.71-2.07,11.67,1.48,11.67,9.55v1.58l-7.49,2v-2.09c0-3.6-1.44-4.58-4-3.91s-4,2.43-4,6c0,10.37,15.48,8.17,15.48,22.57,0,8.06-4,13.75-11.81,15.83s-11.81-1.44-11.81-9.51V132l7.49-2v3.6c0,3.6,1.58,4.47,4.1,3.8s4.11-2.4,4.11-6c0-10.37-15.48-8.16-15.48-22.56C128.09,100.8,132.05,95.13,139.75,93.07Z"/><path class="cls-1" d="M164.59,117.3l-2.45,5.27v15.48l-7.92,2.12V89.77l7.92-2.13v22l10.37-24.74,7.92-2.13-11,25.42,11,25-8.14,2.18Z"/><path class="cls-1" d="M207.86,125.8l-8,2.14-1.37-8.78-9.72,2.61-1.37,9.51-7.27,1.95,8.07-52.57,11.59-3.11Zm-18.07-11.14,7.63-2-3.81-24.47Z"/><path class="cls-1" d="M226.29,120.86c-.43-1.18-.72-1.9-.72-6v-7.92c0-4.68-1.58-6-5.18-5l-2.74.73v20.52l-7.92,2.13V74.89l12-3.2c8.2-2.2,11.73.67,11.73,8.45v4c0,5.18-1.65,9-5.18,11.61,4,.6,5.25,4.07,5.25,9.32v7.78c0,2.45.08,4.23.87,5.89ZM217.65,80V95.45l3.1-.83c2.95-.79,4.75-2.57,4.75-6.6v-5c0-3.6-1.22-4.85-4-4.1Z"/><path class="cls-1" d="M244.44,65.59v38.89c0,3.6,1.58,4.47,4.1,3.79s4.11-2.39,4.11-6V63.39l7.48-2V99.77c0,8.06-4,13.75-11.8,15.83s-11.81-1.44-11.81-9.51V67.72Z"/></svg>