<svg id="Layer_1" data-name="Layer 1" xmlns="http://www.w3.org/2000/svg" viewBox="0 0 140 30"><path d="M4.55,12.32l2.16-1.61,6.84,9.14,5.05-3.77,1.3,1.75-7.21,5.39Z"/><path d="M15.07,4.5l2.33-1,1,2.26-2.34,1Zm1.51,3.36,2.33-1.05,4.4,9.77L21,17.63Z"/><path d="M21.05,2.11l2.46-.71.68,2.38-2.45.71Zm1,3.54,2.46-.71,3,10.29-2.45.71Z"/><path d="M28.4,3.92,31,3.77,31,5.21a3.54,3.54,0,0,1,3.07-1.93c2.14-.13,3.67,1.06,3.83,3.66l.42,7.12-2.55.15-.4-6.6c-.08-1.46-.75-2.24-2-2.16a2.42,2.42,0,0,0-2.13,2.81l.37,6.21L29,14.62Z"/><path d="M41,7.13c.72-2.29,2.67-3.43,5.34-3,2.94.48,4.15,2.46,3.76,4.91l-.67,4.11a7.49,7.49,0,0,0-.11,2.64l-2.63-.43a4.93,4.93,0,0,1,0-1.48A4.17,4.17,0,0,1,43,15.06C41,14.72,39.65,13.45,40,11.42a3.16,3.16,0,0,1,2.93-2.67,14.39,14.39,0,0,1,4.64.13l0-.25A1.86,1.86,0,0,0,45.88,6.2a1.88,1.88,0,0,0-2.29,1.35Zm3,6.16a2.82,2.82,0,0,0,3.23-2.39l.07-.46c-3.6-.52-4.57.19-4.74,1.26C42.42,12.51,43,13.12,44,13.29Z"/><path d="M62.64,5.44l2.57.83-2,6.15,7.18-4.48,3,1-7.53,4.57,3.61,8.46-3.26-1.05L63,13.22l-1.93,6-2.57-.83Z"/><path d="M71.17,16.92c1.07-3.48,3.6-4.83,6.58-3.91S82,16.58,81,19.94s-3.59,4.8-6.55,3.89S70.14,20.27,71.17,16.92Zm7.28,2.25c.67-2.18.21-3.67-1.32-4.14s-2.76.47-3.44,2.67-.2,3.62,1.35,4.1S77.78,21.35,78.45,19.17Z"/><path d="M91.26,24.58c-.45,2-2.6,3-5.22,2.39s-4.17-2.17-4-4.78l2.5.56a2.2,2.2,0,0,0,2,2.3c1.23.27,2-.11,2.16-.87.51-2.35-6.4-1.76-5.46-6,.38-1.7,2-3,4.79-2.37,2.4.53,4,2.07,3.7,4.74L89.24,20a1.92,1.92,0,0,0-1.73-2.24c-1-.23-1.69.13-1.84.8C85.14,21,92.19,20.38,91.26,24.58Z"/><path d="M94.45,13.77l2.56.12L96.63,22l4.08-4.3,3,.14-4.53,4.56,4.34,6.16-3.14-.14L96.59,23.1l-.24,5.17-2.56-.12Z"/><path d="M105.21,21.27c-.25-2.39,1.09-4.21,3.71-4.86,2.89-.73,4.79.61,5.39,3l1,4a7.7,7.7,0,0,0,1,2.46l-2.58.65a5,5,0,0,1-.57-1.37,4.16,4.16,0,0,1-2.94,2.56c-2,.51-3.75-.13-4.25-2.13A3.16,3.16,0,0,1,107.56,22a14.33,14.33,0,0,1,4.31-1.72l-.06-.25a1.86,1.86,0,0,0-2.53-1.55,1.89,1.89,0,0,0-1.57,2.15Zm5.14,4.48a2.8,2.8,0,0,0,2-3.47l-.11-.45c-3.52,1-4.12,2-3.86,3C108.6,25.66,109.35,26,110.35,25.75Z"/><path d="M115,14.6l2.19-1.32.8,1.34a3.28,3.28,0,0,1,1.56-3.11,1.6,1.6,0,0,1,1-.28l1.14,1.9a4.19,4.19,0,0,0-1.08.49c-1.66,1-1.8,2.43-.88,4l2.94,4.88-2.19,1.32Z"/><path d="M126.15,6,128,4.25l7.47,7.7-1.84,1.78-1-1a3.44,3.44,0,0,1-1,3.42c-1.52,1.48-3.43,1.55-5.23-.31l-5-5.14,1.83-1.78,4.63,4.77c1,1.05,2,1.2,2.91.32a2.42,2.42,0,0,0-.26-3.48Z"/></svg>